<svg
        xmlns="http://www.w3.org/2000/svg"
        fill="none" width="141" height="35"
        viewBox="0 0 141 35"
      >
        <path
          fill="#111111"
          d="M124.355 34.488q-1.368 0-2.124-.72a2.19 2.19 0 0 1-.756-1.692q0-.756.396-1.152.396-.36.864-.36.684 0 .972.36t.432.828q.144.504.468.864.288.36.972.36 1.332 0 2.628-1.08 1.296-1.044 2.124-2.916.828-1.836.72-4.14l-.54-12.924q-.036-.936-.324-1.296-.288-.396-.72-.396-.792 0-1.512.972-.72.936-1.188 3.6-.108.468-.468.468-.504 0-.396-.648.432-2.484 1.188-3.888.792-1.404 1.656-1.98.9-.576 1.656-.576 1.116 0 1.764.792.648.756.72 2.628l.504 13.824q0 .252.144.324.18.036.324-.18a34 34 0 0 0 2.268-3.636 23 23 0 0 0 1.656-3.744q.612-1.836.612-3.384 0-1.512-.324-2.376a9 9 0 0 0-.684-1.512 2.8 2.8 0 0 1-.324-1.332q0-1.404 1.224-1.404 1.728 0 1.728 3.816 0 2.088-.72 4.572a31.4 31.4 0 0 1-1.98 5.004 35 35 0 0 1-2.844 4.824 32.7 32.7 0 0 1-3.348 4.14q-1.728 1.836-3.492 2.88-1.728 1.08-3.276 1.08"
        />
        <path
          fill="#111111"
          d="M119.343 27.108q-1.188 0-1.692-.864-.504-.9-.036-2.916l4.572-19.62q.18-.648 0-.9-.144-.252-.648-.288l-1.08-.108q-.54-.036-.468-.468.072-.324.504-.396a21 21 0 0 0 2.304-.504q1.008-.324 1.62-.828.288-.216.54-.216.432 0 .324.54l-5.328 22.824q-.18.792-.072 1.26.144.432.684.432.648 0 1.404-.936.792-.972 1.764-3.636.144-.468.504-.468.54 0 .288.648-.756 2.448-1.692 3.888-.9 1.404-1.8 1.98t-1.692.576M110.694 27.108q-1.188 0-1.692-.864-.504-.9-.036-2.916l4.572-19.62q.18-.648 0-.9-.144-.252-.648-.288l-1.08-.108q-.54-.036-.468-.468.072-.324.504-.396a21 21 0 0 0 2.304-.504q1.008-.324 1.62-.828.288-.216.54-.216.432 0 .324.54l-5.328 22.824q-.18.792-.072 1.26.144.432.684.432.648 0 1.404-.936.792-.972 1.764-3.636.144-.468.504-.468.54 0 .288.648-.756 2.448-1.692 3.888-.9 1.404-1.8 1.98t-1.692.576M94.184 27.072q-1.296 0-2.016-1.116t-.72-3.276q0-2.052.576-4.104a19 19 0 0 1 1.584-3.96 18 18 0 0 1 2.268-3.312q1.296-1.44 2.7-2.268 1.44-.864 2.844-.864.684 0 1.296.288.612.252 1.008.828.216.324.432.324t.432-.324q.396-.576.648-.72.252-.18.468-.18.468 0 .36.504L102.86 22.68q-.54 2.34.72 2.34.828 0 1.476-1.116.684-1.116 1.368-3.456.108-.396.468-.396.252 0 .324.216a.9.9 0 0 1 0 .504q-.684 3.384-1.836 4.86-1.152 1.44-2.772 1.44-1.404 0-2.016-1.188-.576-1.188-.108-3.24l.468-1.98q.072-.252-.108-.288-.144-.036-.252.18-1.98 3.636-3.528 5.076-1.512 1.44-2.88 1.44m.9-1.836q.864 0 1.908-1.044t2.052-2.7a29.5 29.5 0 0 0 1.908-3.564 27 27 0 0 0 1.368-3.672q.54-1.764.54-2.988 0-2.196-1.548-2.196-.936 0-1.98.864-1.044.828-2.016 2.268-.936 1.44-1.728 3.276-.756 1.8-1.224 3.78a16.3 16.3 0 0 0-.468 3.816q0 1.26.288 1.728.324.432.9.432M76.838 27.072q-1.332 0-1.836-1.188-.468-1.224.072-3.204l2.844-10.44q.288-1.044.144-1.62t-.648-.576q-.828 0-1.692 1.26-.828 1.26-1.44 3.492-.108.396-.468.396-.504 0-.324-.72.828-3.024 2.16-4.644 1.368-1.656 2.988-1.656 1.296 0 1.728 1.188t-.144 3.24l-2.88 10.44q-.684 2.484.468 2.484.72 0 1.656-.972t1.944-2.664a38 38 0 0 0 2.052-3.852 48 48 0 0 0 1.836-4.536 45 45 0 0 0 1.368-4.716q.108-.396.504-.396h1.44q.504 0 .396.468l-3.384 14.472q-.396 1.692.612 1.692 1.512 0 3.168-4.572.144-.468.504-.468.216 0 .288.18.108.18 0 .468-.972 3.06-2.304 4.752t-2.808 1.692q-2.592 0-1.728-3.78l.936-3.996q.072-.252-.108-.288-.144-.036-.252.18-2.088 4.32-3.852 6.12-1.764 1.764-3.24 1.764M66.562 27.072q-1.224 0-1.908-.972t-.216-3.132l2.988-13.032q.108-.54-.432-.54h-1.368q-.504 0-.504-.468 0-.252.18-.396a.67.67 0 0 1 .432-.144h1.296q.828 0 .972-.756l.864-3.852q.108-.396.504-.396h1.476q.504 0 .396.468l-.9 3.996q-.108.54.432.54h2.052q.612 0 .612.468 0 .54-.756.54h-1.944q-.792 0-.972.756l-3.024 13.176q-.18.792.036 1.26.252.432.828.432.828 0 1.512-.936.72-.936 1.512-3.564.144-.468.468-.468.252 0 .324.216t-.108.792q-.684 2.448-1.512 3.744-.792 1.296-1.62 1.8-.828.468-1.62.468M46.024 26.28l3.42-14.364q.18-.792.036-1.224-.108-.468-.648-.468-.648 0-1.44.972-.756.936-1.728 3.6-.144.468-.504.468-.54 0-.288-.648.792-2.484 1.656-3.888.9-1.404 1.8-1.98t1.656-.576q1.188 0 1.692.9.504.864.036 2.88l-.9 3.888q-.036.252.108.288t.252-.18q1.404-2.916 2.7-4.608 1.296-1.728 2.448-2.448t2.088-.72q1.332 0 1.944 1.08t0 3.312l-2.736 10.44q-.252 1.008-.036 1.512t.792.504q.72 0 1.404-.936.72-.972 1.476-3.636.108-.396.468-.396.288 0 .324.216a.9.9 0 0 1 0 .504q-.684 2.448-1.476 3.852-.792 1.368-1.62 1.908-.792.54-1.62.54-1.296 0-1.944-1.08t-.072-3.348l2.772-10.44q.396-1.404.108-1.944-.252-.54-.756-.54-.792 0-1.8 1.008-1.008.972-2.052 2.7a38 38 0 0 0-2.052 3.852 50 50 0 0 0-1.836 4.5 46 46 0 0 0-1.296 4.572q-.108.396-.504.396H46.42q-.504 0-.396-.468M36.245 27.072q-1.908 0-3.06-1.476-1.152-1.512-1.152-4.248 0-2.376.828-4.716a17.9 17.9 0 0 1 2.232-4.248q1.368-1.908 2.988-3.06 1.656-1.152 3.204-1.152 1.692 0 2.412.828.756.792.756 2.16 0 1.62-1.152 3.24-1.116 1.584-3.168 2.844-2.016 1.26-4.752 1.872-.792.18-.828.9a4 4 0 0 0-.036.54v.504q0 2.052.684 3.096.72 1.044 1.944 1.044 1.368 0 2.628-1.26 1.296-1.26 2.16-3.564.108-.324.432-.324.216 0 .252.18a.66.66 0 0 1 0 .432q-1.152 3.168-2.808 4.788-1.62 1.62-3.564 1.62m-1.332-9.324q-.072.252.072.432.18.144.432.072 2.232-.612 3.744-1.836 1.512-1.26 2.268-2.808.792-1.548.792-3.024 0-1.512-1.188-1.512-1.044 0-2.268 1.224T36.497 13.5a18 18 0 0 0-1.584 4.248M22.2 27.072q-1.763 0-2.627-1.332t-.324-3.42l2.772-10.404q.468-1.692-.576-1.692-.756 0-1.512 1.08-.72 1.08-1.584 3.528-.144.432-.504.432a.34.34 0 0 1-.288-.144q-.108-.18-.036-.432 2.088-6.516 5.22-6.516 1.224 0 1.656 1.008t-.036 2.772L21.517 22.68q-.396 1.512-.072 2.34.36.792 1.26.792 1.044 0 2.196-1.008 1.188-1.008 2.232-2.628a15.7 15.7 0 0 0 1.692-3.564q.648-1.944.648-3.816 0-1.512-.324-2.376a9 9 0 0 0-.684-1.512 2.8 2.8 0 0 1-.324-1.332q0-1.404 1.224-1.404 1.728 0 1.728 3.816 0 2.736-.792 5.436-.792 2.664-2.088 4.86-1.296 2.16-2.88 3.492-1.548 1.296-3.132 1.296M.504 26.748q-.504 0-.504-.36 0-.396.72-.504l.72-.108q.792-.108 1.08-.36.324-.288.468-1.044L7.884 3.204q.18-.756 0-1.008t-.9-.396l-.72-.144q-.468-.108-.468-.396 0-.432.648-.432h12.024q.936 0 .756.828l-1.116 5.976q-.108.612-.576.612-.504 0-.432-.468l.108-1.26q.18-1.836-.324-2.88-.468-1.044-1.44-1.476-.936-.432-2.196-.432-1.44 0-2.088.432-.648.396-.9 1.44l-1.98 8.676q-.108.504.396.504h1.836q1.584 0 2.304-1.692l.792-1.8q.18-.468.576-.468.216 0 .324.18.144.144.072.432l-1.872 8.1q-.18.612-.612.612t-.432-.468l.036-1.764q.036-1.26-.324-1.656-.324-.396-1.152-.396h-1.8q-.54 0-.648.504L5.688 23.4q-.288 1.296.252 1.872t2.304.576q1.08 0 2.124-.324 1.08-.36 2.016-1.332.972-.972 1.764-2.808l.864-2.016q.18-.468.576-.468.54 0 .36.612l-1.836 6.408q-.216.828-1.08.828z"
        />
      </svg>
